<svg width="1600" height="460" viewBox="0 0 1600 460" fill="none" xmlns="http://www.w3.org/2000/svg">
  <defs>
    <linearGradient id="wave" x1="0" y1="0" x2="1" y2="0">
      <stop offset="0%" stop-color="#2C63FF" stop-opacity="0.1"/>
      <stop offset="25%" stop-color="#4A7FFF" stop-opacity="0.55"/>
      <stop offset="60%" stop-color="#6FDCFF" stop-opacity="0.65"/>
      <stop offset="100%" stop-color="#2C63FF" stop-opacity="0.08"/>
    </linearGradient>
    <filter id="waveGlow" x="-20%" y="-60%" width="140%" height="220%">
      <feGaussianBlur stdDeviation="5" result="blur"/>
      <feMerge>
        <feMergeNode in="blur"/>
        <feMergeNode in="SourceGraphic"/>
      </feMerge>
    </filter>
  </defs>

  <rect width="1600" height="460" fill="none"/>

  <g filter="url(#waveGlow)" stroke="url(#wave)" stroke-width="3" stroke-linecap="round">
    <path d="M40 320C140 240 240 240 340 320C440 400 540 400 640 320C740 240 840 240 940 320C1040 400 1140 400 1240 320C1340 240 1440 240 1560 320"/>
    <path d="M40 280C140 360 240 360 340 280C440 200 540 200 640 280C740 360 840 360 940 280C1040 200 1140 200 1240 280C1340 360 1440 360 1560 280"/>
    <path d="M40 350C140 270 240 270 340 350C440 430 540 430 640 350C740 270 840 270 940 350C1040 430 1140 430 1240 350C1340 270 1440 270 1560 350"/>
  </g>

  <g fill="#58A6FF" opacity="0.85">
    <circle cx="200" cy="310" r="6"/>
    <circle cx="430" cy="315" r="6"/>
    <circle cx="670" cy="290" r="6"/>
    <circle cx="910" cy="330" r="6"/>
    <circle cx="1150" cy="300" r="6"/>
    <circle cx="1390" cy="320" r="6"/>
  </g>

  <g fill="#6FDCFF" opacity="0.78">
    <circle cx="120" cy="287" r="4"/>
    <circle cx="520" cy="349" r="4"/>
    <circle cx="780" cy="281" r="4"/>
    <circle cx="1060" cy="352" r="4"/>
    <circle cx="1490" cy="296" r="4"/>
  </g>
</svg>
